solid OpenSCAD_Model
  facet normal -1 0 0
    outer loop
      vertex -50 11.73 -2.965
      vertex -50 20 -9
      vertex -50 -11.73 -2.965
    endloop
  endfacet
  facet normal -1 0 0
    outer loop
      vertex -50 -20 -9
      vertex -50 -20 9
      vertex -50 -11.73 -2.965
    endloop
  endfacet
  facet normal -1 0 0
    outer loop
      vertex -50 -20 -9
      vertex -50 -11.73 -2.965
      vertex -50 20 -9
    endloop
  endfacet
  facet normal -1 0 0
    outer loop
      vertex -50 20 -9
      vertex -50 11.73 -2.965
      vertex -50 11.73 9
    endloop
  endfacet
  facet normal -1 0 0
    outer loop
      vertex -50 20 -8
      vertex -50 11.73 9
      vertex -50 20 9
    endloop
  endfacet
  facet normal -1 0 0
    outer loop
      vertex -50 -11.73 -2.965
      vertex -50 -20 9
      vertex -50 -11.73 9
    endloop
  endfacet
  facet normal 0 -1 0
    outer loop
      vertex 18 -20 -4
      vertex -50 -20 -9
      vertex 50 -20 -9
    endloop
  endfacet
  facet normal 0 -1 0
    outer loop
      vertex -18 -20 -4
      vertex -18 -20 9
      vertex -50 -20 9
    endloop
  endfacet
  facet normal 0 -1 0
    outer loop
      vertex 50 -20 9
      vertex 18 -20 9
      vertex 50 -20 -9
    endloop
  endfacet
  facet normal 0 -1 0
    outer loop
      vertex -18 -20 -4
      vertex -50 -20 -9
      vertex 18 -20 -4
    endloop
  endfacet
  facet normal 0 -1 0
    outer loop
      vertex -50 -20 9
      vertex -50 -20 -9
      vertex -18 -20 -4
    endloop
  endfacet
  facet normal 0 -1 0
    outer loop
      vertex 18 -20 9
      vertex 18 -20 -4
      vertex 50 -20 -9
    endloop
  endfacet
  facet normal 0 0 -1
    outer loop
      vertex 1.04529 9.94522 -9
      vertex -50 20 -9
      vertex 50 20 -9
    endloop
  endfacet
  facet normal 0 0 -1
    outer loop
      vertex -50 -20 -9
      vertex -50 20 -9
      vertex -10 0 -9
    endloop
  endfacet
  facet normal 0 0 -1
    outer loop
      vertex -50 -20 -9
      vertex -10 0 -9
      vertex -9.78148 -2.07912 -9
    endloop
  endfacet
  facet normal 0 0 -1
    outer loop
      vertex -50 -20 -9
      vertex -9.78148 -2.07912 -9
      vertex -9.13546 -4.06737 -9
    endloop
  endfacet
  facet normal 0 0 -1
    outer loop
      vertex -50 -20 -9
      vertex -9.13546 -4.06737 -9
      vertex -8.09017 -5.87785 -9
    endloop
  endfacet
  facet normal 0 0 -1
    outer loop
      vertex -50 -20 -9
      vertex -8.09017 -5.87785 -9
      vertex -6.69131 -7.43145 -9
    endloop
  endfacet
  facet normal 0 0 -1
    outer loop
      vertex -50 -20 -9
      vertex -6.69131 -7.43145 -9
      vertex -5 -8.66025 -9
    endloop
  endfacet
  facet normal 0 0 -1
    outer loop
      vertex -50 -20 -9
      vertex -5 -8.66025 -9
      vertex -3.09017 -9.51056 -9
    endloop
  endfacet
  facet normal 0 0 -1
    outer loop
      vertex -50 -20 -9
      vertex -3.09017 -9.51056 -9
      vertex -1.04529 -9.94522 -9
    endloop
  endfacet
  facet normal 0 0 -1
    outer loop
      vertex -50 -20 -9
      vertex -1.04529 -9.94522 -9
      vertex 50 -20 -9
    endloop
  endfacet
  facet normal 0 0 -1
    outer loop
      vertex 3.09017 -9.51056 -9
      vertex 50 -20 -9
      vertex 1.04529 -9.94522 -9
    endloop
  endfacet
  facet normal 0 0 -1
    outer loop
      vertex 5 -8.66025 -9
      vertex 50 -20 -9
      vertex 3.09017 -9.51056 -9
    endloop
  endfacet
  facet normal 0 0 -1
    outer loop
      vertex 6.69131 -7.43145 -9
      vertex 50 -20 -9
      vertex 5 -8.66025 -9
    endloop
  endfacet
  facet normal 0 0 -1
    outer loop
      vertex 8.09017 -5.87785 -9
      vertex 50 -20 -9
      vertex 6.69131 -7.43145 -9
    endloop
  endfacet
  facet normal 0 0 -1
    outer loop
      vertex 9.78148 -2.07912 -9
      vertex 50 -20 -9
      vertex 9.13546 -4.06737 -9
    endloop
  endfacet
  facet normal 0 0 -1
    outer loop
      vertex 8.09017 -5.87785 -9
      vertex 9.13546 -4.06737 -9
      vertex 50 -20 -9
    endloop
  endfacet
  facet normal 0 0 -1
    outer loop
      vertex -9.78148 2.07912 -9
      vertex -50 20 -9
      vertex -9.13546 4.06737 -9
    endloop
  endfacet
  facet normal 0 0 -1
    outer loop
      vertex 50 -20 -9
      vertex 9.78148 -2.07912 -9
      vertex 50 20 -9
    endloop
  endfacet
  facet normal 0 0 -1
    outer loop
      vertex -9.13546 4.06737 -9
      vertex -50 20 -9
      vertex -8.09017 5.87785 -9
    endloop
  endfacet
  facet normal 0 0 -1
    outer loop
      vertex 9.78148 -2.07912 -9
      vertex 10 0 -9
      vertex 50 20 -9
    endloop
  endfacet
  facet normal 0 0 -1
    outer loop
      vertex 10 0 -9
      vertex 9.78148 2.07912 -9
      vertex 50 20 -9
    endloop
  endfacet
  facet normal 0 0 -1
    outer loop
      vertex -8.09017 5.87785 -9
      vertex -50 20 -9
      vertex -6.69131 7.43145 -9
    endloop
  endfacet
  facet normal 0 0 -1
    outer loop
      vertex 9.78148 2.07912 -9
      vertex 9.13546 4.06737 -9
      vertex 50 20 -9
    endloop
  endfacet
  facet normal 0 0 -1
    outer loop
      vertex -6.69131 7.43145 -9
      vertex -50 20 -9
      vertex -5 8.66025 -9
    endloop
  endfacet
  facet normal 0 0 -1
    outer loop
      vertex 9.13546 4.06737 -9
      vertex 8.09017 5.87785 -9
      vertex 50 20 -9
    endloop
  endfacet
  facet normal 0 0 -1
    outer loop
      vertex -5 8.66025 -9
      vertex -50 20 -9
      vertex -3.09017 9.51056 -9
    endloop
  endfacet
  facet normal 0 0 -1
    outer loop
      vertex 8.09017 5.87785 -9
      vertex 6.69131 7.43145 -9
      vertex 50 20 -9
    endloop
  endfacet
  facet normal 0 0 -1
    outer loop
      vertex 6.69131 7.43145 -9
      vertex 5 8.66025 -9
      vertex 50 20 -9
    endloop
  endfacet
  facet normal 0 0 -1
    outer loop
      vertex -3.09017 9.51056 -9
      vertex -50 20 -9
      vertex -1.04529 9.94522 -9
    endloop
  endfacet
  facet normal 0 0 -1
    outer loop
      vertex 5 8.66025 -9
      vertex 3.09017 9.51056 -9
      vertex 50 20 -9
    endloop
  endfacet
  facet normal 0 0 -1
    outer loop
      vertex 3.09017 9.51056 -9
      vertex 1.04529 9.94522 -9
      vertex 50 20 -9
    endloop
  endfacet
  facet normal 0 0 -1
    outer loop
      vertex -1.04529 9.94522 -9
      vertex -50 20 -9
      vertex 1.04529 9.94522 -9
    endloop
  endfacet
  facet normal 0 0 -1
    outer loop
      vertex -10 0 -9
      vertex -50 20 -9
      vertex -9.78148 2.07912 -9
    endloop
  endfacet
  facet normal 0 0 -1
    outer loop
      vertex 1.04529 -9.94522 -9
      vertex 50 -20 -9
      vertex -1.04529 -9.94522 -9
    endloop
  endfacet
  facet normal 0 1 0
    outer loop
      vertex -50 20 -9
      vertex -50 20 9
      vertex -18 20 -4
    endloop
  endfacet
  facet normal 0 1 0
    outer loop
      vertex -50 20 -9
      vertex -18 20 -4
      vertex 50 20 -9
    endloop
  endfacet
  facet normal 0 1 0
    outer loop
      vertex 18 20 9
      vertex 50 20 -9
      vertex 18 20 -4
    endloop
  endfacet
  facet normal 0 1 0
    outer loop
      vertex -18 20 -4
      vertex 18 20 -4
      vertex 50 20 -9
    endloop
  endfacet
  facet normal 0 1 0
    outer loop
      vertex 50 20 -9
      vertex 18 20 9
      vertex 50 20 9
    endloop
  endfacet
  facet normal 0 1 0
    outer loop
      vertex -18 20 -4
      vertex -50 20 9
      vertex -18 20 9
    endloop
  endfacet
  facet normal 0 0 1
    outer loop
      vertex -50 -11.73 9
      vertex -50 -20 9
      vertex -18 -20 9
    endloop
  endfacet
  facet normal 0 0 1
    outer loop
      vertex -21 -11.73 9
      vertex -50 -11.73 9
      vertex -18 -20 9
    endloop
  endfacet
  facet normal 0 0 1
    outer loop
      vertex -50 20 9
      vertex -50 11.73 9
      vertex -18 20 9
    endloop
  endfacet
  facet normal 0 0 1
    outer loop
      vertex -18 20 9
      vertex -21 11.73 9
      vertex -18 -20 9
    endloop
  endfacet
  facet normal 0 0 1
    outer loop
      vertex -21 11.73 9
      vertex -21 -11.73 9
      vertex -18 -20 9
    endloop
  endfacet
  facet normal 0 0 1
    outer loop
      vertex -50 11.73 9
      vertex -21 11.73 9
      vertex -18 20 9
    endloop
  endfacet
  facet normal 0 -1 0
    outer loop
      vertex -33 11.73 2.79
      vertex -50 11.73 9
      vertex -33 11.73 1.39
    endloop
  endfacet
  facet normal 0 -1 0
    outer loop
      vertex -21 11.73 -2.965
      vertex -21 11.73 1.39
      vertex -33 11.73 1.39
    endloop
  endfacet
  facet normal 0 -1 0
    outer loop
      vertex -50 11.73 -2.965
      vertex -21 11.73 -2.965
      vertex -33 11.73 1.39
    endloop
  endfacet
  facet normal 0 -1 0
    outer loop
      vertex -21 11.73 2.79
      vertex -21 11.73 9
      vertex -33 11.73 2.79
    endloop
  endfacet
  facet normal 0 -1 0
    outer loop
      vertex -21 11.73 9
      vertex -50 11.73 9
      vertex -33 11.73 2.79
    endloop
  endfacet
  facet normal 0 -1 0
    outer loop
      vertex -50 11.73 9
      vertex -50 11.73 -2.965
      vertex -33 11.73 1.39
    endloop
  endfacet
  facet normal 0 0 1
    outer loop
      vertex -21 -11.73 -2.965
      vertex -21 11.73 -2.965
      vertex -50 11.73 -2.965
    endloop
  endfacet
  facet normal 0 0 1
    outer loop
      vertex -50 -11.73 -2.965
      vertex -21 -11.73 -2.965
      vertex -50 11.73 -2.965
    endloop
  endfacet
  facet normal 0 1 0
    outer loop
      vertex -21 -11.73 9
      vertex -21 -11.73 2.79
      vertex -50 -11.73 9
    endloop
  endfacet
  facet normal 0 1 0
    outer loop
      vertex -50 -11.73 9
      vertex -21 -11.73 2.79
      vertex -33 -11.73 2.79
    endloop
  endfacet
  facet normal 0 1 0
    outer loop
      vertex -50 -11.73 9
      vertex -33 -11.73 2.79
      vertex -33 -11.73 1.39
    endloop
  endfacet
  facet normal 0 1 0
    outer loop
      vertex -33 -11.73 1.39
      vertex -21 -11.73 1.39
      vertex -21 -11.73 -2.965
    endloop
  endfacet
  facet normal 0 1 0
    outer loop
      vertex -33 -11.73 1.39
      vertex -21 -11.73 -2.965
      vertex -50 -11.73 -2.965
    endloop
  endfacet
  facet normal 0 1 0
    outer loop
      vertex -33 -11.73 1.39
      vertex -50 -11.73 -2.965
      vertex -50 -11.73 9
    endloop
  endfacet
  facet normal 1 0 0
    outer loop
      vertex -18 12.6 2.79
      vertex -18 20 -4
      vertex -18 20 9
    endloop
  endfacet
  facet normal 1 0 0
    outer loop
      vertex -18 12.6 1.39
      vertex -18 -12.6 1.39
      vertex -18 0 -4
    endloop
  endfacet
  facet normal 1 0 0
    outer loop
      vertex -18 -20 -4
      vertex -18 -12.6 2.79
      vertex -18 -20 9
    endloop
  endfacet
  facet normal 1 0 0
    outer loop
      vertex -18 12.6 1.39
      vertex -18 20 -4
      vertex -18 12.6 2.79
    endloop
  endfacet
  facet normal 1 0 0
    outer loop
      vertex -18 0 -4
      vertex -18 20 -4
      vertex -18 12.6 1.39
    endloop
  endfacet
  facet normal 1 0 0
    outer loop
      vertex -18 -20 -4
      vertex -18 -12.6 1.39
      vertex -18 -12.6 2.79
    endloop
  endfacet
  facet normal 1 0 0
    outer loop
      vertex -18 -20 -4
      vertex -18 0 -4
      vertex -18 -12.6 1.39
    endloop
  endfacet
  facet normal 1 0 0
    outer loop
      vertex -18 -12.6 2.79
      vertex -18 20 9
      vertex -18 -20 9
    endloop
  endfacet
  facet normal 1 0 0
    outer loop
      vertex -18 -12.6 2.79
      vertex -18 12.6 2.79
      vertex -18 20 9
    endloop
  endfacet
  facet normal 0 0 1
    outer loop
      vertex 14.5623 -10.5801 -4
      vertex 12.0444 -13.3766 -4
      vertex 18 -20 -4
    endloop
  endfacet
  facet normal 0 0 1
    outer loop
      vertex 18 -20 -4
      vertex 18 0 -4
      vertex 17.6067 -3.74241 -4
    endloop
  endfacet
  facet normal 0 0 1
    outer loop
      vertex 12.0444 -13.3766 -4
      vertex 9 -15.5885 -4
      vertex 18 -20 -4
    endloop
  endfacet
  facet normal 0 0 1
    outer loop
      vertex 16.4438 -7.32126 -4
      vertex 18 -20 -4
      vertex 17.6067 -3.74241 -4
    endloop
  endfacet
  facet normal 0 0 1
    outer loop
      vertex 16.4438 -7.32126 -4
      vertex 14.5623 -10.5801 -4
      vertex 18 -20 -4
    endloop
  endfacet
  facet normal 0 0 1
    outer loop
      vertex 9 -15.5885 -4
      vertex 5.56231 -17.119 -4
      vertex 18 -20 -4
    endloop
  endfacet
  facet normal 0 0 1
    outer loop
      vertex 5.56231 -17.119 -4
      vertex 1.88151 -17.9014 -4
      vertex 18 -20 -4
    endloop
  endfacet
  facet normal 0 0 1
    outer loop
      vertex 1.88151 -17.9014 -4
      vertex -1.88151 -17.9014 -4
      vertex 18 -20 -4
    endloop
  endfacet
  facet normal 0 0 1
    outer loop
      vertex -1.88151 -17.9014 -4
      vertex -18 -20 -4
      vertex 18 -20 -4
    endloop
  endfacet
  facet normal 0 0 1
    outer loop
      vertex -5.56231 -17.119 -4
      vertex -18 -20 -4
      vertex -1.88151 -17.9014 -4
    endloop
  endfacet
  facet normal 0 0 1
    outer loop
      vertex -9 -15.5885 -4
      vertex -18 -20 -4
      vertex -5.56231 -17.119 -4
    endloop
  endfacet
  facet normal 0 0 1
    outer loop
      vertex -12.0444 -13.3766 -4
      vertex -18 -20 -4
      vertex -9 -15.5885 -4
    endloop
  endfacet
  facet normal 0 0 1
    outer loop
      vertex -14.5623 -10.5801 -4
      vertex -18 -20 -4
      vertex -12.0444 -13.3766 -4
    endloop
  endfacet
  facet normal 0 0 1
    outer loop
      vertex -16.4438 -7.32126 -4
      vertex -18 -20 -4
      vertex -14.5623 -10.5801 -4
    endloop
  endfacet
  facet normal 0 0 1
    outer loop
      vertex -17.6067 -3.74241 -4
      vertex -18 -20 -4
      vertex -16.4438 -7.32126 -4
    endloop
  endfacet
  facet normal 0 0 1
    outer loop
      vertex -18 0 -4
      vertex -18 -20 -4
      vertex -17.6067 -3.74241 -4
    endloop
  endfacet
  facet normal -1 0 0
    outer loop
      vertex 18 -12.6 2.79
      vertex 18 -20 9
      vertex 18 12.6 2.79
    endloop
  endfacet
  facet normal -1 0 0
    outer loop
      vertex 18 -12.6 1.39
      vertex 18 0 -4
      vertex 18 -20 -4
    endloop
  endfacet
  facet normal -1 0 0
    outer loop
      vertex 18 -20 9
      vertex 18 -12.6 1.39
      vertex 18 -20 -4
    endloop
  endfacet
  facet normal -1 0 0
    outer loop
      vertex 18 20 9
      vertex 18 20 -4
      vertex 18 12.6 1.39
    endloop
  endfacet
  facet normal -1 0 0
    outer loop
      vertex 18 20 9
      vertex 18 12.6 1.39
      vertex 18 12.6 2.79
    endloop
  endfacet
  facet normal -1 0 0
    outer loop
      vertex 18 20 9
      vertex 18 12.6 2.79
      vertex 18 -20 9
    endloop
  endfacet
  facet normal -1 0 0
    outer loop
      vertex 18 -20 9
      vertex 18 -12.6 2.79
      vertex 18 -12.6 1.39
    endloop
  endfacet
  facet normal -1 0 0
    outer loop
      vertex 18 12.6 1.39
      vertex 18 20 -4
      vertex 18 0 -4
    endloop
  endfacet
  facet normal -1 0 0
    outer loop
      vertex 18 12.6 1.39
      vertex 18 0 -4
      vertex 18 -12.6 1.39
    endloop
  endfacet
  facet normal 0 0 1
    outer loop
      vertex 21 -11.73 9
      vertex 18 -20 9
      vertex 50 -20 9
    endloop
  endfacet
  facet normal 0 0 1
    outer loop
      vertex 18 20 9
      vertex 18 -20 9
      vertex 21 -11.73 9
    endloop
  endfacet
  facet normal 0 0 1
    outer loop
      vertex 21 11.73 9
      vertex 50 11.73 9
      vertex 18 20 9
    endloop
  endfacet
  facet normal 0 0 1
    outer loop
      vertex 18 20 9
      vertex 21 -11.73 9
      vertex 21 11.73 9
    endloop
  endfacet
  facet normal 0 0 1
    outer loop
      vertex 50 20 9
      vertex 18 20 9
      vertex 50 11.73 9
    endloop
  endfacet
  facet normal 0 0 1
    outer loop
      vertex 50 -11.73 9
      vertex 21 -11.73 9
      vertex 50 -20 9
    endloop
  endfacet
  facet normal 1 0 0
    outer loop
      vertex 50 -11.73 -2.965
      vertex 50 -20 -9
      vertex 50 20 -9
    endloop
  endfacet
  facet normal 1 0 0
    outer loop
      vertex 50 -11.73 2.79
      vertex 50 -11.73 9
      vertex 50 -20 9
    endloop
  endfacet
  facet normal 1 0 0
    outer loop
      vertex 50 20 9
      vertex 50 11.73 9
      vertex 50 20 -9
    endloop
  endfacet
  facet normal 1 0 0
    outer loop
      vertex 50 11.73 9
      vertex 50 12.6 2.79
      vertex 50 20 -9
    endloop
  endfacet
  facet normal 1 0 0
    outer loop
      vertex 50 11.73 9
      vertex 50 11.73 2.79
      vertex 50 12.6 2.79
    endloop
  endfacet
  facet normal 1 0 0
    outer loop
      vertex 50 12.6 1.39
      vertex 50 11.73 1.39
      vertex 50 20 -9
    endloop
  endfacet
  facet normal 1 0 0
    outer loop
      vertex 50 11.73 1.39
      vertex 50 11.73 -2.965
      vertex 50 20 -9
    endloop
  endfacet
  facet normal 1 0 0
    outer loop
      vertex 50 -20 9
      vertex 50 -20 -9
      vertex 50 -11.73 -2.965
    endloop
  endfacet
  facet normal 1 0 0
    outer loop
      vertex 50 -12.6 1.39
      vertex 50 -12.6 2.79
      vertex 50 -20 9
    endloop
  endfacet
  facet normal 1 0 0
    outer loop
      vertex 50 -12.6 1.39
      vertex 50 -11.73 -2.965
      vertex 50 -11.73 1.39
    endloop
  endfacet
  facet normal 1 0 0
    outer loop
      vertex 50 -20 9
      vertex 50 -11.73 -2.965
      vertex 50 -12.6 1.39
    endloop
  endfacet
  facet normal 1 0 0
    outer loop
      vertex 50 -20 9
      vertex 50 -12.6 2.79
      vertex 50 -11.73 2.79
    endloop
  endfacet
  facet normal 1 0 0
    outer loop
      vertex 50 12.6 2.79
      vertex 50 12.6 1.39
      vertex 50 20 -9
    endloop
  endfacet
  facet normal 1 0 0
    outer loop
      vertex 50 11.73 -2.965
      vertex 50 -11.73 -2.965
      vertex 50 20 -9
    endloop
  endfacet
  facet normal 0.994522 -0.104528 0
    outer loop
      vertex -9.78148 2.07912 -9
      vertex -9.78148 2.07912 -6
      vertex -10 0 -6
    endloop
  endfacet
  facet normal 0.994522 -0.104528 0
    outer loop
      vertex -10 0 -9
      vertex -9.78148 2.07912 -9
      vertex -10 0 -6
    endloop
  endfacet
  facet normal 0.994522 0.104528 0
    outer loop
      vertex -10 0 -6
      vertex -9.78148 -2.07912 -6
      vertex -9.78148 -2.07912 -9
    endloop
  endfacet
  facet normal 0.994522 0.104528 0
    outer loop
      vertex -10 0 -9
      vertex -10 0 -6
      vertex -9.78148 -2.07912 -9
    endloop
  endfacet
  facet normal 0.951057 -0.309017 0
    outer loop
      vertex -9.13546 4.06737 -9
      vertex -9.13546 4.06737 -6
      vertex -9.78148 2.07912 -6
    endloop
  endfacet
  facet normal 0.951057 -0.309017 0
    outer loop
      vertex -9.78148 2.07912 -9
      vertex -9.13546 4.06737 -9
      vertex -9.78148 2.07912 -6
    endloop
  endfacet
  facet normal 0.866025 -0.5 0
    outer loop
      vertex -8.09017 5.87785 -9
      vertex -8.09017 5.87785 -6
      vertex -9.13546 4.06737 -6
    endloop
  endfacet
  facet normal 0.866025 -0.5 0
    outer loop
      vertex -9.13546 4.06737 -9
      vertex -8.09017 5.87785 -9
      vertex -9.13546 4.06737 -6
    endloop
  endfacet
  facet normal 0.743145 -0.669131 0
    outer loop
      vertex -6.69131 7.43145 -9
      vertex -6.69131 7.43145 -6
      vertex -8.09017 5.87785 -6
    endloop
  endfacet
  facet normal 0.743145 -0.669131 0
    outer loop
      vertex -8.09017 5.87785 -9
      vertex -6.69131 7.43145 -9
      vertex -8.09017 5.87785 -6
    endloop
  endfacet
  facet normal 0.587785 -0.809017 0
    outer loop
      vertex -5 8.66025 -9
      vertex -5 8.66025 -6
      vertex -6.69131 7.43145 -6
    endloop
  endfacet
  facet normal 0.587785 -0.809017 0
    outer loop
      vertex -6.69131 7.43145 -9
      vertex -5 8.66025 -9
      vertex -6.69131 7.43145 -6
    endloop
  endfacet
  facet normal 0.406737 -0.913545 0
    outer loop
      vertex -3.09017 9.51056 -9
      vertex -3.09017 9.51056 -6
      vertex -5 8.66025 -6
    endloop
  endfacet
  facet normal 0.406737 -0.913545 0
    outer loop
      vertex -5 8.66025 -9
      vertex -3.09017 9.51056 -9
      vertex -5 8.66025 -6
    endloop
  endfacet
  facet normal 0.207912 -0.978148 0
    outer loop
      vertex -1.04529 9.94522 -9
      vertex -1.04529 9.94522 -6
      vertex -3.09017 9.51056 -6
    endloop
  endfacet
  facet normal 0.207912 -0.978148 0
    outer loop
      vertex -3.09017 9.51056 -9
      vertex -1.04529 9.94522 -9
      vertex -3.09017 9.51056 -6
    endloop
  endfacet
  facet normal 0 -1 0
    outer loop
      vertex 1.04529 9.94522 -9
      vertex 1.04529 9.94522 -6
      vertex -1.04529 9.94522 -6
    endloop
  endfacet
  facet normal 0 -1 0
    outer loop
      vertex -1.04529 9.94522 -9
      vertex 1.04529 9.94522 -9
      vertex -1.04529 9.94522 -6
    endloop
  endfacet
  facet normal -0.207912 -0.978148 0
    outer loop
      vertex 3.09017 9.51056 -9
      vertex 3.09017 9.51056 -6
      vertex 1.04529 9.94522 -6
    endloop
  endfacet
  facet normal -0.207912 -0.978148 0
    outer loop
      vertex 1.04529 9.94522 -9
      vertex 3.09017 9.51056 -9
      vertex 1.04529 9.94522 -6
    endloop
  endfacet
  facet normal -0.406737 -0.913545 0
    outer loop
      vertex 5 8.66025 -9
      vertex 5 8.66025 -6
      vertex 3.09017 9.51056 -6
    endloop
  endfacet
  facet normal -0.406737 -0.913545 0
    outer loop
      vertex 3.09017 9.51056 -9
      vertex 5 8.66025 -9
      vertex 3.09017 9.51056 -6
    endloop
  endfacet
  facet normal -0.587785 -0.809017 0
    outer loop
      vertex 6.69131 7.43145 -9
      vertex 6.69131 7.43145 -6
      vertex 5 8.66025 -6
    endloop
  endfacet
  facet normal -0.587785 -0.809017 0
    outer loop
      vertex 5 8.66025 -9
      vertex 6.69131 7.43145 -9
      vertex 5 8.66025 -6
    endloop
  endfacet
  facet normal -0.743145 -0.669131 0
    outer loop
      vertex 8.09017 5.87785 -6
      vertex 6.69131 7.43145 -6
      vertex 8.09017 5.87785 -9
    endloop
  endfacet
  facet normal -0.743145 -0.669131 0
    outer loop
      vertex 8.09017 5.87785 -9
      vertex 6.69131 7.43145 -6
      vertex 6.69131 7.43145 -9
    endloop
  endfacet
  facet normal -0.866025 -0.5 0
    outer loop
      vertex 9.13546 4.06737 -6
      vertex 8.09017 5.87785 -6
      vertex 9.13546 4.06737 -9
    endloop
  endfacet
  facet normal -0.866025 -0.5 0
    outer loop
      vertex 9.13546 4.06737 -9
      vertex 8.09017 5.87785 -6
      vertex 8.09017 5.87785 -9
    endloop
  endfacet
  facet normal -0.951057 -0.309017 0
    outer loop
      vertex 9.78148 2.07912 -6
      vertex 9.13546 4.06737 -6
      vertex 9.78148 2.07912 -9
    endloop
  endfacet
  facet normal -0.951057 -0.309017 0
    outer loop
      vertex 9.78148 2.07912 -9
      vertex 9.13546 4.06737 -6
      vertex 9.13546 4.06737 -9
    endloop
  endfacet
  facet normal -0.994522 -0.104528 0
    outer loop
      vertex 10 0 -6
      vertex 9.78148 2.07912 -6
      vertex 10 0 -9
    endloop
  endfacet
  facet normal -0.994522 -0.104528 0
    outer loop
      vertex 10 0 -9
      vertex 9.78148 2.07912 -6
      vertex 9.78148 2.07912 -9
    endloop
  endfacet
  facet normal -0.994522 0.104528 0
    outer loop
      vertex 10 0 -6
      vertex 10 0 -9
      vertex 9.78148 -2.07912 -6
    endloop
  endfacet
  facet normal -0.994522 0.104528 0
    outer loop
      vertex 9.78148 -2.07912 -6
      vertex 10 0 -9
      vertex 9.78148 -2.07912 -9
    endloop
  endfacet
  facet normal -0.951057 0.309017 0
    outer loop
      vertex 9.78148 -2.07912 -6
      vertex 9.78148 -2.07912 -9
      vertex 9.13546 -4.06737 -6
    endloop
  endfacet
  facet normal -0.951057 0.309017 0
    outer loop
      vertex 9.13546 -4.06737 -6
      vertex 9.78148 -2.07912 -9
      vertex 9.13546 -4.06737 -9
    endloop
  endfacet
  facet normal -0.866025 0.5 0
    outer loop
      vertex 9.13546 -4.06737 -6
      vertex 9.13546 -4.06737 -9
      vertex 8.09017 -5.87785 -6
    endloop
  endfacet
  facet normal -0.866025 0.5 0
    outer loop
      vertex 8.09017 -5.87785 -6
      vertex 9.13546 -4.06737 -9
      vertex 8.09017 -5.87785 -9
    endloop
  endfacet
  facet normal -0.743145 0.669131 0
    outer loop
      vertex 8.09017 -5.87785 -6
      vertex 8.09017 -5.87785 -9
      vertex 6.69131 -7.43145 -6
    endloop
  endfacet
  facet normal -0.743145 0.669131 0
    outer loop
      vertex 6.69131 -7.43145 -6
      vertex 8.09017 -5.87785 -9
      vertex 6.69131 -7.43145 -9
    endloop
  endfacet
  facet normal -0.587785 0.809017 0
    outer loop
      vertex 6.69131 -7.43145 -6
      vertex 6.69131 -7.43145 -9
      vertex 5 -8.66025 -6
    endloop
  endfacet
  facet normal -0.587785 0.809017 0
    outer loop
      vertex 5 -8.66025 -6
      vertex 6.69131 -7.43145 -9
      vertex 5 -8.66025 -9
    endloop
  endfacet
  facet normal -0.406737 0.913545 0
    outer loop
      vertex 5 -8.66025 -6
      vertex 5 -8.66025 -9
      vertex 3.09017 -9.51056 -6
    endloop
  endfacet
  facet normal -0.406737 0.913545 0
    outer loop
      vertex 3.09017 -9.51056 -6
      vertex 5 -8.66025 -9
      vertex 3.09017 -9.51056 -9
    endloop
  endfacet
  facet normal -0.207912 0.978148 0
    outer loop
      vertex 3.09017 -9.51056 -6
      vertex 3.09017 -9.51056 -9
      vertex 1.04529 -9.94522 -6
    endloop
  endfacet
  facet normal -0.207912 0.978148 0
    outer loop
      vertex 1.04529 -9.94522 -6
      vertex 3.09017 -9.51056 -9
      vertex 1.04529 -9.94522 -9
    endloop
  endfacet
  facet normal 0 1 0
    outer loop
      vertex 1.04529 -9.94522 -6
      vertex 1.04529 -9.94522 -9
      vertex -1.04529 -9.94522 -6
    endloop
  endfacet
  facet normal 0 1 0
    outer loop
      vertex -1.04529 -9.94522 -6
      vertex 1.04529 -9.94522 -9
      vertex -1.04529 -9.94522 -9
    endloop
  endfacet
  facet normal 0.207912 0.978148 0
    outer loop
      vertex -1.04529 -9.94522 -6
      vertex -1.04529 -9.94522 -9
      vertex -3.09017 -9.51056 -6
    endloop
  endfacet
  facet normal 0.207912 0.978148 0
    outer loop
      vertex -3.09017 -9.51056 -6
      vertex -1.04529 -9.94522 -9
      vertex -3.09017 -9.51056 -9
    endloop
  endfacet
  facet normal 0.406737 0.913545 0
    outer loop
      vertex -3.09017 -9.51056 -6
      vertex -3.09017 -9.51056 -9
      vertex -5 -8.66025 -6
    endloop
  endfacet
  facet normal 0.406737 0.913545 0
    outer loop
      vertex -5 -8.66025 -6
      vertex -3.09017 -9.51056 -9
      vertex -5 -8.66025 -9
    endloop
  endfacet
  facet normal 0.587785 0.809017 0
    outer loop
      vertex -5 -8.66025 -6
      vertex -5 -8.66025 -9
      vertex -6.69131 -7.43145 -6
    endloop
  endfacet
  facet normal 0.587785 0.809017 0
    outer loop
      vertex -6.69131 -7.43145 -6
      vertex -5 -8.66025 -9
      vertex -6.69131 -7.43145 -9
    endloop
  endfacet
  facet normal 0.743145 0.669131 0
    outer loop
      vertex -8.09017 -5.87785 -6
      vertex -6.69131 -7.43145 -6
      vertex -6.69131 -7.43145 -9
    endloop
  endfacet
  facet normal 0.743145 0.669131 0
    outer loop
      vertex -8.09017 -5.87785 -9
      vertex -8.09017 -5.87785 -6
      vertex -6.69131 -7.43145 -9
    endloop
  endfacet
  facet normal 0.866025 0.5 0
    outer loop
      vertex -9.13546 -4.06737 -6
      vertex -8.09017 -5.87785 -6
      vertex -8.09017 -5.87785 -9
    endloop
  endfacet
  facet normal 0.866025 0.5 0
    outer loop
      vertex -9.13546 -4.06737 -9
      vertex -9.13546 -4.06737 -6
      vertex -8.09017 -5.87785 -9
    endloop
  endfacet
  facet normal 0.951057 0.309017 0
    outer loop
      vertex -9.78148 -2.07912 -6
      vertex -9.13546 -4.06737 -6
      vertex -9.13546 -4.06737 -9
    endloop
  endfacet
  facet normal 0.951057 0.309017 0
    outer loop
      vertex -9.78148 -2.07912 -9
      vertex -9.78148 -2.07912 -6
      vertex -9.13546 -4.06737 -9
    endloop
  endfacet
  facet normal 0 0 1
    outer loop
      vertex -18 20 -4
      vertex -16.4438 7.32126 -4
      vertex -14.5623 10.5801 -4
    endloop
  endfacet
  facet normal 0 0 1
    outer loop
      vertex -9 15.5885 -4
      vertex -18 20 -4
      vertex -12.0444 13.3766 -4
    endloop
  endfacet
  facet normal 0 0 1
    outer loop
      vertex -12.0444 13.3766 -4
      vertex -18 20 -4
      vertex -14.5623 10.5801 -4
    endloop
  endfacet
  facet normal 0 0 1
    outer loop
      vertex -17.6067 3.74241 -4
      vertex -16.4438 7.32126 -4
      vertex -18 20 -4
    endloop
  endfacet
  facet normal 0 0 1
    outer loop
      vertex -5.56231 17.119 -4
      vertex -18 20 -4
      vertex -9 15.5885 -4
    endloop
  endfacet
  facet normal 0 0 1
    outer loop
      vertex -1.88151 17.9014 -4
      vertex -18 20 -4
      vertex -5.56231 17.119 -4
    endloop
  endfacet
  facet normal 0 0 1
    outer loop
      vertex 1.88151 17.9014 -4
      vertex 18 20 -4
      vertex -1.88151 17.9014 -4
    endloop
  endfacet
  facet normal 0 0 1
    outer loop
      vertex 5.56231 17.119 -4
      vertex 18 20 -4
      vertex 1.88151 17.9014 -4
    endloop
  endfacet
  facet normal 0 0 1
    outer loop
      vertex 9 15.5885 -4
      vertex 18 20 -4
      vertex 5.56231 17.119 -4
    endloop
  endfacet
  facet normal 0 0 1
    outer loop
      vertex 12.0444 13.3766 -4
      vertex 18 20 -4
      vertex 9 15.5885 -4
    endloop
  endfacet
  facet normal 0 0 1
    outer loop
      vertex 14.5623 10.5801 -4
      vertex 18 20 -4
      vertex 12.0444 13.3766 -4
    endloop
  endfacet
  facet normal 0 0 1
    outer loop
      vertex 16.4438 7.32126 -4
      vertex 18 20 -4
      vertex 14.5623 10.5801 -4
    endloop
  endfacet
  facet normal 0 0 1
    outer loop
      vertex 17.6067 3.74241 -4
      vertex 18 20 -4
      vertex 16.4438 7.32126 -4
    endloop
  endfacet
  facet normal 0 0 1
    outer loop
      vertex 18 0 -4
      vertex 18 20 -4
      vertex 17.6067 3.74241 -4
    endloop
  endfacet
  facet normal 0 0 1
    outer loop
      vertex 18 20 -4
      vertex -18 20 -4
      vertex -1.88151 17.9014 -4
    endloop
  endfacet
  facet normal 0 0 1
    outer loop
      vertex -17.6067 3.74241 -4
      vertex -18 20 -4
      vertex -18 0 -4
    endloop
  endfacet
  facet normal -1 0 0
    outer loop
      vertex -21 11.73 9
      vertex -21 11.73 2.79
      vertex -21 -11.73 9
    endloop
  endfacet
  facet normal -1 0 0
    outer loop
      vertex -21 -11.73 9
      vertex -21 11.73 2.79
      vertex -21 -11.73 2.79
    endloop
  endfacet
  facet normal -1 0 0
    outer loop
      vertex -21 11.73 1.39
      vertex -21 11.73 -2.965
      vertex -21 -11.73 1.39
    endloop
  endfacet
  facet normal -1 0 0
    outer loop
      vertex -21 -11.73 1.39
      vertex -21 11.73 -2.965
      vertex -21 -11.73 -2.965
    endloop
  endfacet
  facet normal 0 0 -1
    outer loop
      vertex -33 12.6 2.79
      vertex -21 11.73 2.79
      vertex -33 11.73 2.79
    endloop
  endfacet
  facet normal 0 0 -1
    outer loop
      vertex -18 12.6 2.79
      vertex -21 11.73 2.79
      vertex -33 12.6 2.79
    endloop
  endfacet
  facet normal 0 0 -1
    outer loop
      vertex -21 -11.73 2.79
      vertex -21 11.73 2.79
      vertex -18 12.6 2.79
    endloop
  endfacet
  facet normal 0 0 -1
    outer loop
      vertex -21 -11.73 2.79
      vertex -18 12.6 2.79
      vertex -18 -12.6 2.79
    endloop
  endfacet
  facet normal 0 0 -1
    outer loop
      vertex -21 -11.73 2.79
      vertex -18 -12.6 2.79
      vertex -33 -11.73 2.79
    endloop
  endfacet
  facet normal 0 0 -1
    outer loop
      vertex -18 -12.6 2.79
      vertex -33 -12.6 2.79
      vertex -33 -11.73 2.79
    endloop
  endfacet
  facet normal 1 0 0
    outer loop
      vertex -33 12.6 1.39
      vertex -33 12.6 2.79
      vertex -33 11.73 2.79
    endloop
  endfacet
  facet normal 1 0 0
    outer loop
      vertex -33 11.73 1.39
      vertex -33 12.6 1.39
      vertex -33 11.73 2.79
    endloop
  endfacet
  facet normal 0 0 1
    outer loop
      vertex -21 11.73 1.39
      vertex -18 12.6 1.39
      vertex -33 12.6 1.39
    endloop
  endfacet
  facet normal 0 0 1
    outer loop
      vertex -21 11.73 1.39
      vertex -21 -11.73 1.39
      vertex -18 -12.6 1.39
    endloop
  endfacet
  facet normal 0 0 1
    outer loop
      vertex -18 -12.6 1.39
      vertex -18 12.6 1.39
      vertex -21 11.73 1.39
    endloop
  endfacet
  facet normal 0 0 1
    outer loop
      vertex -33 -11.73 1.39
      vertex -18 -12.6 1.39
      vertex -21 -11.73 1.39
    endloop
  endfacet
  facet normal 0 0 1
    outer loop
      vertex -33 -12.6 1.39
      vertex -18 -12.6 1.39
      vertex -33 -11.73 1.39
    endloop
  endfacet
  facet normal 0 0 1
    outer loop
      vertex -33 11.73 1.39
      vertex -21 11.73 1.39
      vertex -33 12.6 1.39
    endloop
  endfacet
  facet normal 1 0 0
    outer loop
      vertex -33 -11.73 1.39
      vertex -33 -11.73 2.79
      vertex -33 -12.6 2.79
    endloop
  endfacet
  facet normal 1 0 0
    outer loop
      vertex -33 -12.6 1.39
      vertex -33 -11.73 1.39
      vertex -33 -12.6 2.79
    endloop
  endfacet
  facet normal 0.994522 -0.104528 0
    outer loop
      vertex -17.6067 3.74241 -6
      vertex -17.6067 3.74241 -4
      vertex -18 0 -4
    endloop
  endfacet
  facet normal 0.994522 -0.104528 0
    outer loop
      vertex -18 0 -6
      vertex -17.6067 3.74241 -6
      vertex -18 0 -4
    endloop
  endfacet
  facet normal 0.994522 0.104528 0
    outer loop
      vertex -18 0 -4
      vertex -17.6067 -3.74241 -4
      vertex -17.6067 -3.74241 -6
    endloop
  endfacet
  facet normal 0.994522 0.104528 0
    outer loop
      vertex -18 0 -6
      vertex -18 0 -4
      vertex -17.6067 -3.74241 -6
    endloop
  endfacet
  facet normal 0 1 0
    outer loop
      vertex -18 -12.6 2.79
      vertex -18 -12.6 1.39
      vertex -33 -12.6 2.79
    endloop
  endfacet
  facet normal 0 1 0
    outer loop
      vertex -33 -12.6 2.79
      vertex -18 -12.6 1.39
      vertex -33 -12.6 1.39
    endloop
  endfacet
  facet normal 0 -1 0
    outer loop
      vertex -18 12.6 1.39
      vertex -18 12.6 2.79
      vertex -33 12.6 2.79
    endloop
  endfacet
  facet normal 0 -1 0
    outer loop
      vertex -33 12.6 1.39
      vertex -18 12.6 1.39
      vertex -33 12.6 2.79
    endloop
  endfacet
  facet normal 0.951057 0.309017 0
    outer loop
      vertex -17.6067 -3.74241 -4
      vertex -16.4438 -7.32126 -4
      vertex -16.4438 -7.32126 -6
    endloop
  endfacet
  facet normal 0.951057 0.309017 0
    outer loop
      vertex -17.6067 -3.74241 -6
      vertex -17.6067 -3.74241 -4
      vertex -16.4438 -7.32126 -6
    endloop
  endfacet
  facet normal 0.866025 0.5 0
    outer loop
      vertex -16.4438 -7.32126 -4
      vertex -14.5623 -10.5801 -4
      vertex -14.5623 -10.5801 -6
    endloop
  endfacet
  facet normal 0.866025 0.5 0
    outer loop
      vertex -16.4438 -7.32126 -6
      vertex -16.4438 -7.32126 -4
      vertex -14.5623 -10.5801 -6
    endloop
  endfacet
  facet normal 0.743145 0.669131 0
    outer loop
      vertex -14.5623 -10.5801 -4
      vertex -12.0444 -13.3766 -4
      vertex -12.0444 -13.3766 -6
    endloop
  endfacet
  facet normal 0.743145 0.669131 0
    outer loop
      vertex -14.5623 -10.5801 -6
      vertex -14.5623 -10.5801 -4
      vertex -12.0444 -13.3766 -6
    endloop
  endfacet
  facet normal 0.587785 0.809017 0
    outer loop
      vertex -9 -15.5885 -4
      vertex -9 -15.5885 -6
      vertex -12.0444 -13.3766 -4
    endloop
  endfacet
  facet normal 0.587785 0.809017 0
    outer loop
      vertex -12.0444 -13.3766 -4
      vertex -9 -15.5885 -6
      vertex -12.0444 -13.3766 -6
    endloop
  endfacet
  facet normal 0.406737 0.913545 0
    outer loop
      vertex -5.56231 -17.119 -4
      vertex -5.56231 -17.119 -6
      vertex -9 -15.5885 -4
    endloop
  endfacet
  facet normal 0.406737 0.913545 0
    outer loop
      vertex -9 -15.5885 -4
      vertex -5.56231 -17.119 -6
      vertex -9 -15.5885 -6
    endloop
  endfacet
  facet normal 0.207912 0.978148 0
    outer loop
      vertex -1.88151 -17.9014 -4
      vertex -1.88151 -17.9014 -6
      vertex -5.56231 -17.119 -4
    endloop
  endfacet
  facet normal 0.207912 0.978148 0
    outer loop
      vertex -5.56231 -17.119 -4
      vertex -1.88151 -17.9014 -6
      vertex -5.56231 -17.119 -6
    endloop
  endfacet
  facet normal 0 1 0
    outer loop
      vertex 1.88151 -17.9014 -4
      vertex 1.88151 -17.9014 -6
      vertex -1.88151 -17.9014 -4
    endloop
  endfacet
  facet normal 0 1 0
    outer loop
      vertex -1.88151 -17.9014 -4
      vertex 1.88151 -17.9014 -6
      vertex -1.88151 -17.9014 -6
    endloop
  endfacet
  facet normal -0.207912 0.978148 0
    outer loop
      vertex 5.56231 -17.119 -4
      vertex 5.56231 -17.119 -6
      vertex 1.88151 -17.9014 -4
    endloop
  endfacet
  facet normal -0.207912 0.978148 0
    outer loop
      vertex 1.88151 -17.9014 -4
      vertex 5.56231 -17.119 -6
      vertex 1.88151 -17.9014 -6
    endloop
  endfacet
  facet normal -0.406737 0.913545 0
    outer loop
      vertex 9 -15.5885 -4
      vertex 9 -15.5885 -6
      vertex 5.56231 -17.119 -4
    endloop
  endfacet
  facet normal -0.406737 0.913545 0
    outer loop
      vertex 5.56231 -17.119 -4
      vertex 9 -15.5885 -6
      vertex 5.56231 -17.119 -6
    endloop
  endfacet
  facet normal -0.587785 0.809017 0
    outer loop
      vertex 12.0444 -13.3766 -4
      vertex 12.0444 -13.3766 -6
      vertex 9 -15.5885 -4
    endloop
  endfacet
  facet normal -0.587785 0.809017 0
    outer loop
      vertex 9 -15.5885 -4
      vertex 12.0444 -13.3766 -6
      vertex 9 -15.5885 -6
    endloop
  endfacet
  facet normal -0.743145 0.669131 0
    outer loop
      vertex 14.5623 -10.5801 -4
      vertex 14.5623 -10.5801 -6
      vertex 12.0444 -13.3766 -4
    endloop
  endfacet
  facet normal -0.743145 0.669131 0
    outer loop
      vertex 12.0444 -13.3766 -4
      vertex 14.5623 -10.5801 -6
      vertex 12.0444 -13.3766 -6
    endloop
  endfacet
  facet normal -0.866025 0.5 0
    outer loop
      vertex 16.4438 -7.32126 -4
      vertex 16.4438 -7.32126 -6
      vertex 14.5623 -10.5801 -4
    endloop
  endfacet
  facet normal -0.866025 0.5 0
    outer loop
      vertex 14.5623 -10.5801 -4
      vertex 16.4438 -7.32126 -6
      vertex 14.5623 -10.5801 -6
    endloop
  endfacet
  facet normal -0.951057 0.309017 0
    outer loop
      vertex 17.6067 -3.74241 -4
      vertex 17.6067 -3.74241 -6
      vertex 16.4438 -7.32126 -4
    endloop
  endfacet
  facet normal -0.951057 0.309017 0
    outer loop
      vertex 16.4438 -7.32126 -4
      vertex 17.6067 -3.74241 -6
      vertex 16.4438 -7.32126 -6
    endloop
  endfacet
  facet normal -0.994522 0.104528 0
    outer loop
      vertex 18 0 -4
      vertex 18 0 -6
      vertex 17.6067 -3.74241 -4
    endloop
  endfacet
  facet normal -0.994522 0.104528 0
    outer loop
      vertex 17.6067 -3.74241 -4
      vertex 18 0 -6
      vertex 17.6067 -3.74241 -6
    endloop
  endfacet
  facet normal -0.994522 -0.104528 0
    outer loop
      vertex 18 0 -4
      vertex 17.6067 3.74241 -4
      vertex 18 0 -6
    endloop
  endfacet
  facet normal -0.994522 -0.104528 0
    outer loop
      vertex 18 0 -6
      vertex 17.6067 3.74241 -4
      vertex 17.6067 3.74241 -6
    endloop
  endfacet
  facet normal 0 0 1
    outer loop
      vertex 21 11.73 1.39
      vertex 18 12.6 1.39
      vertex 21 -11.73 1.39
    endloop
  endfacet
  facet normal 0 0 1
    outer loop
      vertex 50 -12.6 1.39
      vertex 50 -11.73 1.39
      vertex 21 -11.73 1.39
    endloop
  endfacet
  facet normal 0 0 1
    outer loop
      vertex 18 -12.6 1.39
      vertex 50 -12.6 1.39
      vertex 21 -11.73 1.39
    endloop
  endfacet
  facet normal 0 0 1
    outer loop
      vertex 50 11.73 1.39
      vertex 50 12.6 1.39
      vertex 21 11.73 1.39
    endloop
  endfacet
  facet normal 0 0 1
    outer loop
      vertex 50 12.6 1.39
      vertex 18 12.6 1.39
      vertex 21 11.73 1.39
    endloop
  endfacet
  facet normal 0 0 1
    outer loop
      vertex 18 12.6 1.39
      vertex 18 -12.6 1.39
      vertex 21 -11.73 1.39
    endloop
  endfacet
  facet normal 0 1 0
    outer loop
      vertex 50 -12.6 2.79
      vertex 50 -12.6 1.39
      vertex 18 -12.6 2.79
    endloop
  endfacet
  facet normal 0 1 0
    outer loop
      vertex 18 -12.6 2.79
      vertex 50 -12.6 1.39
      vertex 18 -12.6 1.39
    endloop
  endfacet
  facet normal 0 0 -1
    outer loop
      vertex 50 12.6 2.79
      vertex 50 11.73 2.79
      vertex 18 12.6 2.79
    endloop
  endfacet
  facet normal 0 0 -1
    outer loop
      vertex 18 12.6 2.79
      vertex 50 11.73 2.79
      vertex 21 11.73 2.79
    endloop
  endfacet
  facet normal 0 0 -1
    outer loop
      vertex 18 12.6 2.79
      vertex 21 11.73 2.79
      vertex 21 -11.73 2.79
    endloop
  endfacet
  facet normal 0 0 -1
    outer loop
      vertex 21 -11.73 2.79
      vertex 50 -11.73 2.79
      vertex 50 -12.6 2.79
    endloop
  endfacet
  facet normal 0 0 -1
    outer loop
      vertex 21 -11.73 2.79
      vertex 50 -12.6 2.79
      vertex 18 -12.6 2.79
    endloop
  endfacet
  facet normal 0 0 -1
    outer loop
      vertex 21 -11.73 2.79
      vertex 18 -12.6 2.79
      vertex 18 12.6 2.79
    endloop
  endfacet
  facet normal 0 -1 0
    outer loop
      vertex 50 12.6 1.39
      vertex 50 12.6 2.79
      vertex 18 12.6 2.79
    endloop
  endfacet
  facet normal 0 -1 0
    outer loop
      vertex 18 12.6 1.39
      vertex 50 12.6 1.39
      vertex 18 12.6 2.79
    endloop
  endfacet
  facet normal 0 -1 0
    outer loop
      vertex 50 11.73 2.79
      vertex 50 11.73 9
      vertex 21 11.73 9
    endloop
  endfacet
  facet normal 0 -1 0
    outer loop
      vertex 21 11.73 2.79
      vertex 50 11.73 2.79
      vertex 21 11.73 9
    endloop
  endfacet
  facet normal 1 0 0
    outer loop
      vertex 21 11.73 2.79
      vertex 21 11.73 9
      vertex 21 -11.73 9
    endloop
  endfacet
  facet normal 1 0 0
    outer loop
      vertex 21 -11.73 2.79
      vertex 21 11.73 2.79
      vertex 21 -11.73 9
    endloop
  endfacet
  facet normal 0 1 0
    outer loop
      vertex 50 -11.73 9
      vertex 50 -11.73 2.79
      vertex 21 -11.73 9
    endloop
  endfacet
  facet normal 0 1 0
    outer loop
      vertex 21 -11.73 9
      vertex 50 -11.73 2.79
      vertex 21 -11.73 2.79
    endloop
  endfacet
  facet normal 0 1 0
    outer loop
      vertex 50 -11.73 1.39
      vertex 50 -11.73 -2.965
      vertex 21 -11.73 1.39
    endloop
  endfacet
  facet normal 0 1 0
    outer loop
      vertex 21 -11.73 1.39
      vertex 50 -11.73 -2.965
      vertex 21 -11.73 -2.965
    endloop
  endfacet
  facet normal 0 0 1
    outer loop
      vertex 50 -11.73 -2.965
      vertex 50 11.73 -2.965
      vertex 21 11.73 -2.965
    endloop
  endfacet
  facet normal 0 0 1
    outer loop
      vertex 21 -11.73 -2.965
      vertex 50 -11.73 -2.965
      vertex 21 11.73 -2.965
    endloop
  endfacet
  facet normal 0 -1 0
    outer loop
      vertex 50 11.73 -2.965
      vertex 50 11.73 1.39
      vertex 21 11.73 1.39
    endloop
  endfacet
  facet normal 0 -1 0
    outer loop
      vertex 21 11.73 -2.965
      vertex 50 11.73 -2.965
      vertex 21 11.73 1.39
    endloop
  endfacet
  facet normal 0 0 1
    outer loop
      vertex -17.6067 -3.74241 -6
      vertex -16.4438 -7.32126 -6
      vertex -14.5623 -10.5801 -6
    endloop
  endfacet
  facet normal 0 0 1
    outer loop
      vertex -9 -15.5885 -6
      vertex -17.6067 -3.74241 -6
      vertex -12.0444 -13.3766 -6
    endloop
  endfacet
  facet normal 0 0 1
    outer loop
      vertex -12.0444 -13.3766 -6
      vertex -17.6067 -3.74241 -6
      vertex -14.5623 -10.5801 -6
    endloop
  endfacet
  facet normal 0 0 1
    outer loop
      vertex -5.56231 -17.119 -6
      vertex -17.6067 -3.74241 -6
      vertex -9 -15.5885 -6
    endloop
  endfacet
  facet normal 0 0 1
    outer loop
      vertex -1.88151 -17.9014 -6
      vertex -17.6067 -3.74241 -6
      vertex -5.56231 -17.119 -6
    endloop
  endfacet
  facet normal 0 0 1
    outer loop
      vertex 1.88151 -17.9014 -6
      vertex -17.6067 -3.74241 -6
      vertex -1.88151 -17.9014 -6
    endloop
  endfacet
  facet normal 0 0 1
    outer loop
      vertex 5.56231 -17.119 -6
      vertex -17.6067 -3.74241 -6
      vertex 1.88151 -17.9014 -6
    endloop
  endfacet
  facet normal 0 0 1
    outer loop
      vertex 9 -15.5885 -6
      vertex -17.6067 -3.74241 -6
      vertex 5.56231 -17.119 -6
    endloop
  endfacet
  facet normal 0 0 1
    outer loop
      vertex -3.09017 -9.51056 -6
      vertex -17.6067 -3.74241 -6
      vertex 9 -15.5885 -6
    endloop
  endfacet
  facet normal 0 0 1
    outer loop
      vertex -5 -8.66025 -6
      vertex -6.69131 -7.43145 -6
      vertex -17.6067 -3.74241 -6
    endloop
  endfacet
  facet normal 0 0 1
    outer loop
      vertex 3.09017 -9.51056 -6
      vertex 1.04529 -9.94522 -6
      vertex 12.0444 -13.3766 -6
    endloop
  endfacet
  facet normal 0 0 1
    outer loop
      vertex 6.69131 -7.43145 -6
      vertex 5 -8.66025 -6
      vertex 14.5623 -10.5801 -6
    endloop
  endfacet
  facet normal 0 0 1
    outer loop
      vertex 8.09017 -5.87785 -6
      vertex 6.69131 -7.43145 -6
      vertex 16.4438 -7.32126 -6
    endloop
  endfacet
  facet normal 0 0 1
    outer loop
      vertex 9.78148 -2.07912 -6
      vertex 9.13546 -4.06737 -6
      vertex 17.6067 -3.74241 -6
    endloop
  endfacet
  facet normal 0 0 1
    outer loop
      vertex 6.69131 7.43145 -6
      vertex 8.09017 5.87785 -6
      vertex 14.5623 10.5801 -6
    endloop
  endfacet
  facet normal 0 0 1
    outer loop
      vertex -3.09017 9.51056 -6
      vertex -1.04529 9.94522 -6
      vertex 5.56231 17.119 -6
    endloop
  endfacet
  facet normal 0 0 1
    outer loop
      vertex 1.04529 9.94522 -6
      vertex 3.09017 9.51056 -6
      vertex 9 15.5885 -6
    endloop
  endfacet
  facet normal 0 0 1
    outer loop
      vertex -1.88151 17.9014 -6
      vertex -17.6067 -3.74241 -6
      vertex 1.88151 17.9014 -6
    endloop
  endfacet
  facet normal 0 0 1
    outer loop
      vertex -5.56231 17.119 -6
      vertex -17.6067 -3.74241 -6
      vertex -1.88151 17.9014 -6
    endloop
  endfacet
  facet normal 0 0 1
    outer loop
      vertex -9 15.5885 -6
      vertex -17.6067 -3.74241 -6
      vertex -5.56231 17.119 -6
    endloop
  endfacet
  facet normal 0 0 1
    outer loop
      vertex -12.0444 13.3766 -6
      vertex -17.6067 -3.74241 -6
      vertex -9 15.5885 -6
    endloop
  endfacet
  facet normal 0 0 1
    outer loop
      vertex -14.5623 10.5801 -6
      vertex -17.6067 -3.74241 -6
      vertex -12.0444 13.3766 -6
    endloop
  endfacet
  facet normal 0 0 1
    outer loop
      vertex -16.4438 7.32126 -6
      vertex -17.6067 -3.74241 -6
      vertex -14.5623 10.5801 -6
    endloop
  endfacet
  facet normal 0 0 1
    outer loop
      vertex -17.6067 3.74241 -6
      vertex -17.6067 -3.74241 -6
      vertex -16.4438 7.32126 -6
    endloop
  endfacet
  facet normal 0 0 1
    outer loop
      vertex -18 0 -6
      vertex -17.6067 -3.74241 -6
      vertex -17.6067 3.74241 -6
    endloop
  endfacet
  facet normal 0 0 1
    outer loop
      vertex 8.09017 5.87785 -6
      vertex 9.13546 4.06737 -6
      vertex 16.4438 7.32126 -6
    endloop
  endfacet
  facet normal 0 0 1
    outer loop
      vertex -8.09017 -5.87785 -6
      vertex -9.13546 -4.06737 -6
      vertex -17.6067 -3.74241 -6
    endloop
  endfacet
  facet normal 0 0 1
    outer loop
      vertex -6.69131 7.43145 -6
      vertex -5 8.66025 -6
      vertex 1.88151 17.9014 -6
    endloop
  endfacet
  facet normal 0 0 1
    outer loop
      vertex 3.09017 9.51056 -6
      vertex 5 8.66025 -6
      vertex 12.0444 13.3766 -6
    endloop
  endfacet
  facet normal 0 0 1
    outer loop
      vertex -8.09017 5.87785 -6
      vertex -17.6067 -3.74241 -6
      vertex -9.13546 4.06737 -6
    endloop
  endfacet
  facet normal 0 0 1
    outer loop
      vertex 1.88151 17.9014 -6
      vertex -17.6067 -3.74241 -6
      vertex -8.09017 5.87785 -6
    endloop
  endfacet
  facet normal 0 0 1
    outer loop
      vertex 1.88151 17.9014 -6
      vertex -8.09017 5.87785 -6
      vertex -6.69131 7.43145 -6
    endloop
  endfacet
  facet normal 0 0 1
    outer loop
      vertex 1.88151 17.9014 -6
      vertex -5 8.66025 -6
      vertex 5.56231 17.119 -6
    endloop
  endfacet
  facet normal 0 0 1
    outer loop
      vertex -5 8.66025 -6
      vertex -3.09017 9.51056 -6
      vertex 5.56231 17.119 -6
    endloop
  endfacet
  facet normal 0 0 1
    outer loop
      vertex 5.56231 17.119 -6
      vertex -1.04529 9.94522 -6
      vertex 9 15.5885 -6
    endloop
  endfacet
  facet normal 0 0 1
    outer loop
      vertex -1.04529 9.94522 -6
      vertex 1.04529 9.94522 -6
      vertex 9 15.5885 -6
    endloop
  endfacet
  facet normal 0 0 1
    outer loop
      vertex 9 15.5885 -6
      vertex 3.09017 9.51056 -6
      vertex 12.0444 13.3766 -6
    endloop
  endfacet
  facet normal 0 0 1
    outer loop
      vertex -9.78148 2.07912 -6
      vertex -9.13546 4.06737 -6
      vertex -17.6067 -3.74241 -6
    endloop
  endfacet
  facet normal 0 0 1
    outer loop
      vertex 12.0444 13.3766 -6
      vertex 5 8.66025 -6
      vertex 14.5623 10.5801 -6
    endloop
  endfacet
  facet normal 0 0 1
    outer loop
      vertex 5 8.66025 -6
      vertex 6.69131 7.43145 -6
      vertex 14.5623 10.5801 -6
    endloop
  endfacet
  facet normal 0 0 1
    outer loop
      vertex 14.5623 10.5801 -6
      vertex 8.09017 5.87785 -6
      vertex 16.4438 7.32126 -6
    endloop
  endfacet
  facet normal 0 0 1
    outer loop
      vertex -6.69131 -7.43145 -6
      vertex -8.09017 -5.87785 -6
      vertex -17.6067 -3.74241 -6
    endloop
  endfacet
  facet normal 0 0 1
    outer loop
      vertex 16.4438 7.32126 -6
      vertex 9.13546 4.06737 -6
      vertex 17.6067 3.74241 -6
    endloop
  endfacet
  facet normal 0 0 1
    outer loop
      vertex -10 0 -6
      vertex -9.78148 2.07912 -6
      vertex -17.6067 -3.74241 -6
    endloop
  endfacet
  facet normal 0 0 1
    outer loop
      vertex 9.13546 4.06737 -6
      vertex 9.78148 2.07912 -6
      vertex 17.6067 3.74241 -6
    endloop
  endfacet
  facet normal 0 0 1
    outer loop
      vertex 17.6067 3.74241 -6
      vertex 10 0 -6
      vertex 18 0 -6
    endloop
  endfacet
  facet normal 0 0 1
    outer loop
      vertex 18 0 -6
      vertex 9.78148 -2.07912 -6
      vertex 17.6067 -3.74241 -6
    endloop
  endfacet
  facet normal 0 0 1
    outer loop
      vertex 17.6067 -3.74241 -6
      vertex 9.13546 -4.06737 -6
      vertex 16.4438 -7.32126 -6
    endloop
  endfacet
  facet normal 0 0 1
    outer loop
      vertex 9.13546 -4.06737 -6
      vertex 8.09017 -5.87785 -6
      vertex 16.4438 -7.32126 -6
    endloop
  endfacet
  facet normal 0 0 1
    outer loop
      vertex 16.4438 -7.32126 -6
      vertex 6.69131 -7.43145 -6
      vertex 14.5623 -10.5801 -6
    endloop
  endfacet
  facet normal 0 0 1
    outer loop
      vertex 14.5623 -10.5801 -6
      vertex 5 -8.66025 -6
      vertex 12.0444 -13.3766 -6
    endloop
  endfacet
  facet normal 0 0 1
    outer loop
      vertex 5 -8.66025 -6
      vertex 3.09017 -9.51056 -6
      vertex 12.0444 -13.3766 -6
    endloop
  endfacet
  facet normal 0 0 1
    outer loop
      vertex 12.0444 -13.3766 -6
      vertex 1.04529 -9.94522 -6
      vertex 9 -15.5885 -6
    endloop
  endfacet
  facet normal 0 0 1
    outer loop
      vertex 1.04529 -9.94522 -6
      vertex -1.04529 -9.94522 -6
      vertex 9 -15.5885 -6
    endloop
  endfacet
  facet normal 0 0 1
    outer loop
      vertex -1.04529 -9.94522 -6
      vertex -3.09017 -9.51056 -6
      vertex 9 -15.5885 -6
    endloop
  endfacet
  facet normal 0 0 1
    outer loop
      vertex -5 -8.66025 -6
      vertex -17.6067 -3.74241 -6
      vertex -3.09017 -9.51056 -6
    endloop
  endfacet
  facet normal 0 0 1
    outer loop
      vertex -9.13546 -4.06737 -6
      vertex -9.78148 -2.07912 -6
      vertex -17.6067 -3.74241 -6
    endloop
  endfacet
  facet normal 0 0 1
    outer loop
      vertex 9.78148 2.07912 -6
      vertex 10 0 -6
      vertex 17.6067 3.74241 -6
    endloop
  endfacet
  facet normal 0 0 1
    outer loop
      vertex 10 0 -6
      vertex 9.78148 -2.07912 -6
      vertex 18 0 -6
    endloop
  endfacet
  facet normal 0 0 1
    outer loop
      vertex -9.78148 -2.07912 -6
      vertex -10 0 -6
      vertex -17.6067 -3.74241 -6
    endloop
  endfacet
  facet normal 0.951057 -0.309017 0
    outer loop
      vertex -16.4438 7.32126 -6
      vertex -16.4438 7.32126 -4
      vertex -17.6067 3.74241 -4
    endloop
  endfacet
  facet normal 0.951057 -0.309017 0
    outer loop
      vertex -17.6067 3.74241 -6
      vertex -16.4438 7.32126 -6
      vertex -17.6067 3.74241 -4
    endloop
  endfacet
  facet normal -0.951057 -0.309017 0
    outer loop
      vertex 17.6067 3.74241 -4
      vertex 16.4438 7.32126 -4
      vertex 17.6067 3.74241 -6
    endloop
  endfacet
  facet normal -0.951057 -0.309017 0
    outer loop
      vertex 17.6067 3.74241 -6
      vertex 16.4438 7.32126 -4
      vertex 16.4438 7.32126 -6
    endloop
  endfacet
  facet normal -0.866025 -0.5 0
    outer loop
      vertex 16.4438 7.32126 -4
      vertex 14.5623 10.5801 -4
      vertex 16.4438 7.32126 -6
    endloop
  endfacet
  facet normal -0.866025 -0.5 0
    outer loop
      vertex 16.4438 7.32126 -6
      vertex 14.5623 10.5801 -4
      vertex 14.5623 10.5801 -6
    endloop
  endfacet
  facet normal -0.743145 -0.669131 0
    outer loop
      vertex 14.5623 10.5801 -4
      vertex 12.0444 13.3766 -4
      vertex 14.5623 10.5801 -6
    endloop
  endfacet
  facet normal -0.743145 -0.669131 0
    outer loop
      vertex 14.5623 10.5801 -6
      vertex 12.0444 13.3766 -4
      vertex 12.0444 13.3766 -6
    endloop
  endfacet
  facet normal -0.587785 -0.809017 0
    outer loop
      vertex 12.0444 13.3766 -6
      vertex 12.0444 13.3766 -4
      vertex 9 15.5885 -4
    endloop
  endfacet
  facet normal -0.587785 -0.809017 0
    outer loop
      vertex 9 15.5885 -6
      vertex 12.0444 13.3766 -6
      vertex 9 15.5885 -4
    endloop
  endfacet
  facet normal -0.406737 -0.913545 0
    outer loop
      vertex 9 15.5885 -6
      vertex 9 15.5885 -4
      vertex 5.56231 17.119 -4
    endloop
  endfacet
  facet normal -0.406737 -0.913545 0
    outer loop
      vertex 5.56231 17.119 -6
      vertex 9 15.5885 -6
      vertex 5.56231 17.119 -4
    endloop
  endfacet
  facet normal -0.207912 -0.978148 0
    outer loop
      vertex 5.56231 17.119 -6
      vertex 5.56231 17.119 -4
      vertex 1.88151 17.9014 -4
    endloop
  endfacet
  facet normal -0.207912 -0.978148 0
    outer loop
      vertex 1.88151 17.9014 -6
      vertex 5.56231 17.119 -6
      vertex 1.88151 17.9014 -4
    endloop
  endfacet
  facet normal 0 -1 0
    outer loop
      vertex 1.88151 17.9014 -6
      vertex 1.88151 17.9014 -4
      vertex -1.88151 17.9014 -4
    endloop
  endfacet
  facet normal 0 -1 0
    outer loop
      vertex -1.88151 17.9014 -6
      vertex 1.88151 17.9014 -6
      vertex -1.88151 17.9014 -4
    endloop
  endfacet
  facet normal 0.207912 -0.978148 0
    outer loop
      vertex -1.88151 17.9014 -6
      vertex -1.88151 17.9014 -4
      vertex -5.56231 17.119 -4
    endloop
  endfacet
  facet normal 0.207912 -0.978148 0
    outer loop
      vertex -5.56231 17.119 -6
      vertex -1.88151 17.9014 -6
      vertex -5.56231 17.119 -4
    endloop
  endfacet
  facet normal 0.406737 -0.913545 0
    outer loop
      vertex -5.56231 17.119 -6
      vertex -5.56231 17.119 -4
      vertex -9 15.5885 -4
    endloop
  endfacet
  facet normal 0.406737 -0.913545 0
    outer loop
      vertex -9 15.5885 -6
      vertex -5.56231 17.119 -6
      vertex -9 15.5885 -4
    endloop
  endfacet
  facet normal 0.587785 -0.809017 0
    outer loop
      vertex -9 15.5885 -6
      vertex -9 15.5885 -4
      vertex -12.0444 13.3766 -4
    endloop
  endfacet
  facet normal 0.587785 -0.809017 0
    outer loop
      vertex -12.0444 13.3766 -6
      vertex -9 15.5885 -6
      vertex -12.0444 13.3766 -4
    endloop
  endfacet
  facet normal 0.743145 -0.669131 0
    outer loop
      vertex -12.0444 13.3766 -6
      vertex -12.0444 13.3766 -4
      vertex -14.5623 10.5801 -4
    endloop
  endfacet
  facet normal 0.743145 -0.669131 0
    outer loop
      vertex -14.5623 10.5801 -6
      vertex -12.0444 13.3766 -6
      vertex -14.5623 10.5801 -4
    endloop
  endfacet
  facet normal 0.866025 -0.5 0
    outer loop
      vertex -14.5623 10.5801 -6
      vertex -14.5623 10.5801 -4
      vertex -16.4438 7.32126 -4
    endloop
  endfacet
  facet normal 0.866025 -0.5 0
    outer loop
      vertex -16.4438 7.32126 -6
      vertex -14.5623 10.5801 -6
      vertex -16.4438 7.32126 -4
    endloop
  endfacet
  facet normal 1 0 0
    outer loop
      vertex 21 11.73 -2.965
      vertex 21 11.73 1.39
      vertex 21 -11.73 1.39
    endloop
  endfacet
  facet normal 1 0 0
    outer loop
      vertex 21 -11.73 -2.965
      vertex 21 11.73 -2.965
      vertex 21 -11.73 1.39
    endloop
  endfacet
endsolid OpenSCAD_Model
